PathFileType	3	(X/Y/Z)	walking_3__view2_aligned.trc
DataRate	CameraRate	NumFrames	NumMarkers	Units	OrigDataRate	OrigDataStartFrame	OrigNumFrames
100.0	100.0	12	19	mm	100.0	256	6318
Frame#	Time	pelvis			neck			head			hip_left			hip_right			knee_left			knee_right			ankle_left			ankle_right			heel_left			heel_right			toe_left			toe_right			shoulder_left			shoulder_right			elbow_left			elbow_right			wrist_left			wrist_right			
		X1	Y1	Z1	X2	Y2	Z2	X3	Y3	Z3	X4	Y4	Z4	X5	Y5	Z5	X6	Y6	Z6	X7	Y7	Z7	X8	Y8	Z8	X9	Y9	Z9	X10	Y10	Z10	X11	Y11	Z11	X12	Y12	Z12	X13	Y13	Z13	X14	Y14	Z14	X15	Y15	Z15	X16	Y16	Z16	X17	Y17	Z17	X18	Y18	Z18	X19	Y19	Z19	
256	2.55000	-99.600078	944.586803	-1.832333	-138.722081	1503.825225	66.860701	-155.663874	1595.261205	206.306774	-23.460892	948.187518	-10.893166	-175.739269	940.986027	7.228496	34.675082	504.074166	-84.280406	-161.440545	559.568413	293.447624	3.312185	273.169586	-499.303061	-171.358510	116.074643	360.747827	-11.249320	275.268842	-564.806661	-175.688470	56.072940	335.332170	40.370917	55.922412	-454.739454	-153.429826	87.073122	574.708178	52.335876	1477.650106	58.171934	-320.481816	1443.034286	46.199048	123.888256	1195.541839	111.083815	-297.364082	1148.260389	80.789875	-76.409148	1202.266039	351.487089	-105.226432	1163.445965	284.081010
257	2.56000	-99.017170	944.673825	-1.639381	-137.142853	1504.080052	68.216049	-153.227755	1595.341656	208.222631	-22.935673	948.006240	-10.297536	-175.098673	941.341356	7.018770	34.424233	506.302241	-71.188191	-162.778060	557.412620	278.277054	4.608665	270.629797	-473.070071	-172.876154	116.838505	336.553938	-9.479952	271.188203	-537.344026	-176.970353	57.600754	310.456706	39.887862	59.116117	-424.445080	-156.701496	85.822751	548.611287	53.263536	1477.461102	57.207910	-318.960157	1443.036682	47.838480	124.812225	1195.531717	105.256748	-297.877006	1148.371988	80.291815	-67.516921	1194.972991	341.355478	-108.165833	1157.820088	282.363782
258	2.57000	-98.434263	944.760848	-1.446429	-135.563626	1504.334878	69.571397	-150.791636	1595.422106	210.138488	-22.410453	947.824963	-9.701906	-174.458077	941.696684	6.809045	34.173384	508.530316	-58.095975	-164.115575	555.256826	263.106484	5.905146	268.090009	-446.837082	-174.393798	117.602367	312.360050	-7.710585	267.107564	-509.881392	-178.252237	59.128568	285.581241	39.404807	62.309822	-394.150705	-159.973167	84.572380	522.514397	54.191196	1477.272099	56.243885	-317.438497	1443.039077	49.477911	125.736194	1195.521595	99.429681	-298.389929	1148.483587	79.793755	-58.624693	1187.679944	331.223867	-111.105233	1152.194210	280.646554
259	2.58000	-97.851355	944.847870	-1.253478	-133.984398	1504.589705	70.926746	-148.355517	1595.502557	212.054345	-21.885233	947.643685	-9.106276	-173.817481	942.052012	6.599319	33.922534	510.758392	-45.003760	-165.453090	553.101033	247.935913	7.201626	265.550220	-420.604092	-175.911443	118.366229	288.166161	-5.941218	263.026924	-482.418758	-179.534121	60.656383	260.705777	38.921752	65.503527	-363.856331	-163.244837	83.322009	496.417506	55.118856	1477.083095	55.279860	-315.916837	1443.041473	51.117343	126.660163	1195.511473	93.602614	-298.902853	1148.595185	79.295695	-49.732465	1180.386896	321.092257	-114.044634	1146.568333	278.929326
260	2.59000	-97.268447	944.934892	-1.060526	-132.405171	1504.844532	72.282094	-145.919398	1595.583007	213.970202	-21.360013	947.462408	-8.510647	-173.176885	942.407341	6.389593	33.671685	512.986467	-31.911545	-166.790605	550.945239	232.765343	8.498106	263.010431	-394.371102	-177.429087	119.130090	263.972272	-4.171850	258.946285	-454.956124	-180.816005	62.184197	235.830312	38.438697	68.697232	-333.561957	-166.516507	82.071638	470.320616	56.046516	1476.894091	54.315835	-314.395177	1443.043869	52.756775	127.584132	1195.501351	87.775546	-299.415776	1148.706784	78.797636	-40.840237	1173.093848	310.960646	-116.984034	1140.942455	277.212098
261	2.60000	-96.685540	945.021915	-0.867574	-130.825944	1505.099358	73.637443	-143.483279	1595.663458	215.886059	-20.834794	947.281130	-7.915017	-172.536289	942.762669	6.179868	33.420836	515.214542	-18.819330	-168.128119	548.789446	217.594773	9.794586	260.470642	-368.138113	-178.946732	119.893952	239.778383	-2.402483	254.865645	-427.493490	-182.097889	63.712012	210.954848	37.955643	71.890937	-303.267582	-169.788178	80.821267	444.223725	56.974176	1476.705088	53.351811	-312.873518	1443.046265	54.396206	128.508101	1195.491229	81.948479	-299.928700	1148.818382	78.299576	-31.948010	1165.800800	300.829035	-119.923435	1135.316578	275.494870
262	2.61000	-96.102632	945.108937	-0.674622	-129.246716	1505.354185	74.992791	-141.047160	1595.743909	217.801915	-20.309574	947.099852	-7.319387	-171.895693	943.117997	5.970142	33.169986	517.442618	-5.727114	-169.465634	546.633652	202.424203	11.091066	257.930854	-341.905123	-180.464376	120.657814	215.584494	-0.633116	250.785006	-400.030855	-183.379773	65.239826	186.079383	37.472588	75.084642	-272.973208	-173.059848	79.570896	418.126835	57.901837	1476.516084	52.387786	-311.351858	1443.048660	56.035638	129.432069	1195.481107	76.121412	-300.441623	1148.929981	77.801516	-23.055782	1158.507752	290.697425	-122.862835	1129.690701	273.777642
263	2.62000	-95.519725	945.195959	-0.481670	-127.667489	1505.609011	76.348139	-138.611041	1595.824359	219.717772	-19.784354	946.918575	-6.723758	-171.255097	943.473326	5.760417	32.919137	519.670693	7.365101	-170.803149	544.477859	187.253633	12.387546	255.391065	-315.672133	-181.982021	121.421676	191.390605	1.136251	246.704367	-372.568221	-184.661657	66.767640	161.203919	36.989533	78.278347	-242.678834	-176.331518	78.320525	392.029944	58.829497	1476.327081	51.423761	-309.830198	1443.051056	57.675070	130.356038	1195.470985	70.294345	-300.954547	1149.041580	77.303456	-14.163554	1151.214704	280.565814	-125.802236	1124.064823	272.060414
264	2.63000	-94.936817	945.282982	-0.288718	-126.088261	1505.863838	77.703488	-136.174922	1595.904810	221.633629	-19.259135	946.737297	-6.128128	-170.614501	943.828654	5.550691	32.668288	521.898768	20.457316	-172.140664	542.322066	172.083062	13.684026	252.851276	-289.439144	-183.499665	122.185538	167.196716	2.905619	242.623727	-345.105587	-185.943541	68.295455	136.328454	36.506478	81.472052	-212.384459	-179.603189	77.070154	365.933053	59.757157	1476.138077	50.459736	-308.308538	1443.053452	59.314501	131.280007	1195.460863	64.467277	-301.467470	1149.153178	76.805397	-5.271326	1143.921656	270.434203	-128.741637	1118.438946	270.343187
265	2.64000	-94.353910	945.370004	-0.095766	-124.509034	1506.118664	79.058836	-133.738803	1595.985260	223.549486	-18.733915	946.556019	-5.532498	-169.973905	944.183983	5.340966	32.417439	524.126844	33.549531	-173.478179	540.166272	156.912492	14.980506	250.311487	-263.206154	-185.017310	122.949400	143.002828	4.674986	238.543088	-317.642953	-187.225425	69.823269	111.452990	36.023423	84.665757	-182.090085	-182.874859	75.819783	339.836163	60.684817	1475.949073	49.495711	-306.786879	1443.055848	60.953933	132.203976	1195.450741	58.640210	-301.980394	1149.264777	76.307337	3.620901	1136.628608	260.302592	-131.681037	1112.813069	268.625959
266	2.65000	-93.771002	945.457026	0.097186	-122.929807	1506.373491	80.414185	-131.302684	1596.065711	225.465343	-18.208695	946.374742	-4.936868	-169.333309	944.539311	5.131240	32.166589	526.354919	46.641746	-174.815694	538.010479	141.741922	16.276986	247.771699	-236.973165	-186.534954	123.713261	118.808939	6.444353	234.462448	-290.180318	-188.507309	71.351083	86.577525	35.540368	87.859462	-151.795711	-186.146530	74.569412	313.739272	61.612477	1475.760070	48.531687	-305.265219	1443.058243	62.593365	133.127945	1195.440619	52.813143	-302.493317	1149.376375	75.809277	12.513129	1129.335561	250.170982	-134.620438	1107.187191	266.908731
267	2.66000	-92.756079	945.552220	0.439145	-121.104297	1506.612191	81.683972	-128.919331	1596.144095	227.174953	-17.226240	946.287671	-4.291838	-168.285917	944.816769	5.170127	32.363200	527.934399	56.524769	-175.473188	536.440000	130.891047	17.532570	245.223988	-216.445956	-187.437163	124.887876	100.095505	8.039561	230.628833	-268.668412	-189.218704	73.281154	67.261598	35.441081	89.911773	-127.853474	-188.438365	73.744469	293.083612	62.928345	1475.581421	48.070547	-303.414631	1443.194984	63.900506	134.497788	1195.444134	48.434072	-302.418015	1149.704645	75.061207	20.530439	1123.198453	241.761470	-137.296231	1102.364313	264.526788
